<?xml version="1.0" encoding="UTF-8" standalone="no"?>
<!-- Uploaded to: SVG Repo, www.svgrepo.com, Generator: SVG Repo Mixer Tools -->

<svg
   width="800px"
   height="800px"
   viewBox="0 0 32 32"
   version="1.1"
   id="svg5"
   sodipodi:docname="flag-svgrepo-com.svg"
   inkscape:version="1.2.1 (9c6d41e4, 2022-07-14)"
   xmlns:inkscape="http://www.inkscape.org/namespaces/inkscape"
   xmlns:sodipodi="http://sodipodi.sourceforge.net/DTD/sodipodi-0.dtd"
   xmlns="http://www.w3.org/2000/svg"
   xmlns:svg="http://www.w3.org/2000/svg">
  <defs
     id="defs9" />
  <sodipodi:namedview
     id="namedview7"
     pagecolor="#ffffff"
     bordercolor="#cccccc"
     borderopacity="1"
     inkscape:showpageshadow="0"
     inkscape:pageopacity="1"
     inkscape:pagecheckerboard="0"
     inkscape:deskcolor="#d1d1d1"
     showgrid="false"
     inkscape:zoom="0.7092444"
     inkscape:cx="298.90966"
     inkscape:cy="395.49132"
     inkscape:window-width="1378"
     inkscape:window-height="847"
     inkscape:window-x="612"
     inkscape:window-y="1465"
     inkscape:window-maximized="1"
     inkscape:current-layer="svg5" />
  <g
     id="icomoon-ignore" />
  <path
     d="m 31.290915,1.0404728 -1.124759,0.3212416 c -0.03014,0.00781 -3.076035,0.8635806 -7.893939,0.8635806 -2.454165,0 -4.792522,-0.40838 -7.051559,-0.8024536 C 12.934651,1.0235653 10.570912,0.60998305 8.0691551,0.60998305 3.0783327,0.60998305 1.3872277,1.48787 1.2095506,1.5880141 L 0.84467797,1.7948053 V 31.118831 H 4.2841225 V 17.858186 c 0.6726348,-0.215896 0.5757403,-0.599565 3.7834461,-0.599565 2.3240794,0 4.4974504,0.379768 6.7993214,0.781644 2.34629,0.410982 4.771898,0.833668 7.403741,0.833668 5.128839,0 8.320681,-0.903898 8.455525,-0.941615 l 0.564759,-0.162571 V 1.0391722 Z M 29.656208,14.845569 c -1.094617,0.244507 -3.712182,0.72572 -7.329179,0.72572 -2.454165,0 -4.792523,-0.40838 -7.05156,-0.803754 -2.286005,-0.399277 -4.649746,-0.812859 -7.1515024,-0.812859 -2.739717,0 -2.7380067,0.265318 -3.783446,0.52023 L 4.2841225,4.1738032 c 0.677394,-0.2158951 0.5836722,-0.5982637 3.7834461,-0.5982637 2.3240794,0 4.4974504,0.3797675 6.7993214,0.7816445 2.34629,0.4096806 4.771898,0.8336675 7.403741,0.8336675 3.407592,0 5.168954,-0.455674 6.539606,-0.7339967 l 0.0564,10.3310162 z"
     fill="#000000"
     id="path3"
     style="fill:#ffffff;stroke-width:1.29512"
     sodipodi:nodetypes="ccscscccccscscccccscsccscsccc" />
</svg>
