<?xml version="1.0" encoding="UTF-8" standalone="no"?>
<!-- Uploaded to: SVG Repo, www.svgrepo.com, Generator: SVG Repo Mixer Tools -->

<svg
   width="800px"
   height="800px"
   viewBox="0 0 32 32"
   version="1.1"
   id="svg5"
   sodipodi:docname="search-svgrepo-com.svg"
   inkscape:version="1.2.1 (9c6d41e4, 2022-07-14)"
   xmlns:inkscape="http://www.inkscape.org/namespaces/inkscape"
   xmlns:sodipodi="http://sodipodi.sourceforge.net/DTD/sodipodi-0.dtd"
   xmlns="http://www.w3.org/2000/svg"
   xmlns:svg="http://www.w3.org/2000/svg">
  <defs
     id="defs9" />
  <sodipodi:namedview
     id="namedview7"
     pagecolor="#ffffff"
     bordercolor="#cccccc"
     borderopacity="1"
     inkscape:showpageshadow="0"
     inkscape:pageopacity="1"
     inkscape:pagecheckerboard="0"
     inkscape:deskcolor="#d1d1d1"
     showgrid="false"
     inkscape:zoom="0.91664822"
     inkscape:cx="420.55392"
     inkscape:cy="370.37109"
     inkscape:window-width="1378"
     inkscape:window-height="847"
     inkscape:window-x="612"
     inkscape:window-y="1465"
     inkscape:window-maximized="1"
     inkscape:current-layer="svg5" />
  <g
     id="icomoon-ignore" />
  <path
     d="M 0.03789544,29.640367 8.9825326,20.616342 c -1.7980408,-2.181469 -2.356913,-4.414316 -2.356913,-7.471602 0,-6.9506358 5.5850104,-12.58319771 12.4742164,-12.58319771 6.889205,0 12.474215,5.63380411 12.474215,12.58319771 0,6.949394 -5.586241,12.583198 -12.474215,12.583198 -3.032039,0 -5.633369,-0.917428 -7.794713,-2.731177 L 2.3604857,32.020786 Z M 28.972348,13.101103 c 0,-6.2077441 -3.310522,-10.0962551 -9.465732,-10.0962551 -6.153979,0 -9.9597877,4.1113786 -9.9597877,10.3191221 0,6.207744 3.6759357,9.784898 9.8241937,9.519609 6.067936,-0.261823 9.601326,-3.534732 9.601326,-9.742476 z"
     fill="#000000"
     id="path3"
     style="fill:#ffffff;stroke-width:1"
     sodipodi:nodetypes="ccsssscccsssss" />
</svg>
