<?xml version="1.0" encoding="UTF-8" standalone="no"?>
<!-- Uploaded to: SVG Repo, www.svgrepo.com, Generator: SVG Repo Mixer Tools -->

<svg
   fill="#000000"
   height="800px"
   width="800px"
   version="1.1"
   id="Capa_1"
   viewBox="0 0 460.775 460.775"
   xml:space="preserve"
   sodipodi:docname="x-botton.svg"
   inkscape:export-filename="x-botton.png"
   inkscape:export-xdpi="96"
   inkscape:export-ydpi="96"
   inkscape:version="1.2.1 (9c6d41e4, 2022-07-14)"
   xmlns:inkscape="http://www.inkscape.org/namespaces/inkscape"
   xmlns:sodipodi="http://sodipodi.sourceforge.net/DTD/sodipodi-0.dtd"
   xmlns="http://www.w3.org/2000/svg"
   xmlns:svg="http://www.w3.org/2000/svg"><defs
   id="defs7" /><sodipodi:namedview
   id="namedview5"
   pagecolor="#ffffff"
   bordercolor="#cccccc"
   borderopacity="1"
   inkscape:showpageshadow="0"
   inkscape:pageopacity="1"
   inkscape:pagecheckerboard="0"
   inkscape:deskcolor="#d1d1d1"
   showgrid="false"
   inkscape:zoom="0.295"
   inkscape:cx="401.69492"
   inkscape:cy="401.69492"
   inkscape:window-width="1378"
   inkscape:window-height="847"
   inkscape:window-x="612"
   inkscape:window-y="1465"
   inkscape:window-maximized="1"
   inkscape:current-layer="Capa_1" />
<path
   d="M285.08,230.397L456.218,59.27c6.076-6.077,6.076-15.911,0-21.986L423.511,4.565c-2.913-2.911-6.866-4.55-10.992-4.55  c-4.127,0-8.08,1.639-10.993,4.55l-171.138,171.14L59.25,4.565c-2.913-2.911-6.866-4.55-10.993-4.55  c-4.126,0-8.08,1.639-10.992,4.55L4.558,37.284c-6.077,6.075-6.077,15.909,0,21.986l171.138,171.128L4.575,401.505  c-6.074,6.077-6.074,15.911,0,21.986l32.709,32.719c2.911,2.911,6.865,4.55,10.992,4.55c4.127,0,8.08-1.639,10.994-4.55  l171.117-171.12l171.118,171.12c2.913,2.911,6.866,4.55,10.993,4.55c4.128,0,8.081-1.639,10.992-4.55l32.709-32.719  c6.074-6.075,6.074-15.909,0-21.986L285.08,230.397z"
   id="path2"
   style="fill:#ffffff" />
</svg>
